<svg xmlns="http://www.w3.org/2000/svg" xmlns:xlink="http://www.w3.org/1999/xlink" viewBox="0 0 446 401" width="501" height="451" preserveAspectRatio="xMidYMid meet" style="width: 100%; height: 100%; transform: translate3d(0px, 0px, 0px); content-visibility: visible; background-color: transparent;">
<defs><clipPath id="__lottie_element_2"><rect width="446" height="401" x="0" y="0"/>
</clipPath></defs><g clip-path="url(#__lottie_element_2)">
<g transform="matrix(0,0.800000011920929,-0.800000011920929,0,251.09158325195312,79.3871078491211)" opacity="1" style="display: block;"><g opacity="1" transform="matrix(1,0,0,1,105.4000015258789,84.80000305175781)"><path stroke-linecap="round" stroke-linejoin="round" fill-opacity="0" stroke="rgb(0,128,129)" stroke-opacity="1" stroke-width="10.11" d=" M0,-36 C19.881999969482422,-36 36,-19.881999969482422 36,0 C36,19.881999969482422 19.881999969482422,36 0,36 C-19.881999969482422,36 -36,19.881999969482422 -36,0 C-36,-19.881999969482422 -19.881999969482422,-36 0,-36z"/></g><g opacity="1" transform="matrix(1,0,0,1,58.349998474121094,36.400001525878906)"><path stroke-linecap="round" stroke-linejoin="round" fill-opacity="0" stroke="rgb(0,128,129)" stroke-opacity="1" stroke-width="10.11" d=" M8.350000381469727,8.300000190734863 C8.350000381469727,8.300000190734863 -8.350000381469727,-8.300000190734863 -8.350000381469727,-8.300000190734863"/></g><g opacity="1" transform="matrix(1,0,0,1,152.4499969482422,130.5500030517578)"><path stroke-linecap="round" stroke-linejoin="round" fill-opacity="0" stroke="rgb(0,128,129)" stroke-opacity="1" stroke-width="10.11" d=" M8.350000381469727,8.350000381469727 C8.350000381469727,8.350000381469727 -8.350000381469727,-8.350000381469727 -8.350000381469727,-8.350000381469727"/></g><g opacity="1" transform="matrix(1,0,0,1,152.4499969482422,36.400001525878906)"><path stroke-linecap="round" stroke-linejoin="round" fill-opacity="0" stroke="rgb(0,128,129)" stroke-opacity="1" stroke-width="10.11" d=" M-8.350000381469727,8.300000190734863 C-8.350000381469727,8.300000190734863 8.350000381469727,-8.300000190734863 8.350000381469727,-8.300000190734863"/></g><g opacity="1" transform="matrix(1,0,0,1,58.349998474121094,130.5500030517578)"><path stroke-linecap="round" stroke-linejoin="round" fill-opacity="0" stroke="rgb(0,128,129)" stroke-opacity="1" stroke-width="10.11" d=" M-8.350000381469727,8.350000381469727 C-8.350000381469727,8.350000381469727 8.350000381469727,-8.350000381469727 8.350000381469727,-8.350000381469727"/></g><g opacity="1" transform="matrix(1,0,0,1,0,0)"><path stroke-linecap="round" stroke-linejoin="round" fill-opacity="0" stroke="rgb(0,128,129)" stroke-opacity="1" stroke-width="10.11" d=" M50.599998474121094,83.5 C50.599998474121094,83.5 27,83.5 27,83.5"/></g><g opacity="1" transform="matrix(1,0,0,1,0,0)"><path stroke-linecap="round" stroke-linejoin="round" fill-opacity="0" stroke="rgb(0,128,129)" stroke-opacity="1" stroke-width="10.11" d=" M183.6999969482422,83.5 C183.6999969482422,83.5 160.10000610351562,83.5 160.10000610351562,83.5"/></g><g opacity="1" transform="matrix(1,0,0,1,0,0)"><path stroke-linecap="round" stroke-linejoin="round" fill-opacity="0" stroke="rgb(0,128,129)" stroke-opacity="1" stroke-width="10.11" d=" M105.4000015258789,28.700000762939453 C105.4000015258789,28.700000762939453 105.4000015258789,5.099999904632568 105.4000015258789,5.099999904632568"/></g><g opacity="1" transform="matrix(1,0,0,1,0,0)"><path stroke-linecap="round" stroke-linejoin="round" fill-opacity="0" stroke="rgb(0,128,129)" stroke-opacity="1" stroke-width="10.11" d=" M105.4000015258789,161.8000030517578 C105.4000015258789,161.8000030517578 105.4000015258789,138.1999969482422 105.4000015258789,138.1999969482422"/></g></g><g transform="matrix(1,0,0,1,223,200.5)" opacity="1" style="display: block;"><g opacity="1" transform="matrix(1,0,0,1,0,0)"><path fill="rgb(255,255,255)" fill-opacity="1" d=" M13,-98.5 C13,-98.5 -35,12.5 -35,12.5 C-35,12.5 -69,-26.5 -69,-26.5 C-69,-26.5 -132,55.5 -132,55.5 C-132,55.5 -156,198.5 -156,198.5 C-156,198.5 92,195.5 92,195.5 C92,195.5 74,18.5 74,18.5 C74,18.5 13,-98.5 13,-98.5z"/></g><g opacity="1" transform="matrix(1,0,0,1,0,0)"><path fill="rgb(255,255,255)" fill-opacity="1" d="M0 0"/></g></g><g transform="matrix(1,0,0,1,0,0)" opacity="1" style="display: block;"><g opacity="1" transform="matrix(1,0,0,1,82.5999984741211,314.29998779296875)"><path fill="rgb(255,255,255)" fill-opacity="1" d=" M-72.4000015258789,81.30000305175781 C-72.4000015258789,81.30000305175781 5.900000095367432,-81.30000305175781 5.900000095367432,-81.30000305175781 C5.900000095367432,-81.30000305175781 72.4000015258789,81.30000305175781 72.4000015258789,81.30000305175781"/><path stroke-linecap="round" stroke-linejoin="round" fill-opacity="0" stroke="rgb(0,128,129)" stroke-opacity="1" stroke-width="10.11" d=" M-72.4000015258789,81.30000305175781 C-72.4000015258789,81.30000305175781 5.900000095367432,-81.30000305175781 5.900000095367432,-81.30000305175781 C5.900000095367432,-81.30000305175781 72.4000015258789,81.30000305175781 72.4000015258789,81.30000305175781"/></g><g opacity="1" transform="matrix(1,0,0,1,195.60000610351562,173.14999389648438)"><path stroke-linecap="round" stroke-linejoin="round" fill-opacity="0" stroke="rgb(0,128,129)" stroke-opacity="1" stroke-width="10.11" d=" M96,42.150001525878906 C96,42.150001525878906 39.60100173950195,-73.94999694824219 39.60100173950195,-73.94999694824219 C39.60100173950195,-73.94999694824219 -9,42.150001525878906 -9,42.150001525878906 C-9,42.150001525878906 -39.39899826049805,0.25 -39.39899826049805,0.25 C-39.39899826049805,0.25 -96,73.94999694824219 -96,73.94999694824219"/></g><g opacity="1" transform="matrix(1,0,0,1,324.25,279.45001220703125)"><path fill="rgb(255,255,255)" fill-opacity="1" d=" M-108.75,116.1500015258789 C-108.75,116.1500015258789 -8.550000190734863,-116.1500015258789 -8.550000190734863,-116.1500015258789 C-8.550000190734863,-116.1500015258789 108.75,116.1500015258789 108.75,116.1500015258789"/><path stroke-linecap="round" stroke-linejoin="round" fill-opacity="0" stroke="rgb(0,128,129)" stroke-opacity="1" stroke-width="10.11" d=" M-108.75,116.1500015258789 C-108.75,116.1500015258789 -8.550000190734863,-116.1500015258789 -8.550000190734863,-116.1500015258789 C-8.550000190734863,-116.1500015258789 108.75,116.1500015258789 108.75,116.1500015258789"/></g><g opacity="1" transform="matrix(1,0,0,1,322.3999938964844,278.79998779296875)"><path stroke-linecap="round" stroke-linejoin="round" fill-opacity="0" stroke="rgb(0,128,129)" stroke-opacity="1" stroke-width="10.11" d=" M-48.599998474121094,-18.399999618530273 C-48.599998474121094,-18.399999618530273 -17.700000762939453,12.798999786376953 -17.700000762939453,12.798999786376953 C-17.700000762939453,12.798999786376953 6.599999904632568,-18.399999618530273 6.599999904632568,-18.399999618530273 C6.599999904632568,-18.399999618530273 44.20000076293945,18.399999618530273 44.20000076293945,18.399999618530273 C44.20000076293945,18.399999618530273 48.599998474121094,-6.000999927520752 48.599998474121094,-6.000999927520752"/></g><g opacity="1" transform="matrix(1,0,0,1,89.19999694824219,306.5)"><path stroke-linecap="round" stroke-linejoin="round" fill-opacity="0" stroke="rgb(0,128,129)" stroke-opacity="1" stroke-width="10.11" d=" M-29.399999618530273,-13.901000022888184 C-29.399999618530273,-13.901000022888184 -17.100000381469727,-0.5009999871253967 -17.100000381469727,-0.5009999871253967 C-17.100000381469727,-0.5009999871253967 -0.699999988079071,-13.901000022888184 -0.699999988079071,-13.901000022888184 C-0.699999988079071,-13.901000022888184 13.899999618530273,13.899999618530273 13.899999618530273,13.899999618530273 C13.899999618530273,13.899999618530273 29.399999618530273,-0.0010000000474974513 29.399999618530273,-0.0010000000474974513"/></g><g opacity="1" transform="matrix(1,0,0,1,0,0)"><path stroke-linecap="round" stroke-linejoin="round" fill-opacity="0" stroke="rgb(0,128,129)" stroke-opacity="1" stroke-width="10.11" d=" M440.29998779296875,395.6000061035156 C440.29998779296875,395.6000061035156 5.099999904632568,395.6000061035156 5.099999904632568,395.6000061035156"/></g></g></g></svg>